<svg xmlns="http://www.w3.org/2000/svg" viewBox="0 0 64 64" fill="none">
  <title>Space Defend</title>
  <defs>
    <radialGradient id="planet" cx="42%" cy="38%" r="62%">
      <stop offset="0%" stop-color="#6b9ee8"/>
      <stop offset="55%" stop-color="#3d6eb5"/>
      <stop offset="100%" stop-color="#142a52"/>
    </radialGradient>
    <linearGradient id="flame" x1="1" y1="0" x2="0" y2="0">
      <stop offset="0%" stop-color="#fff8e8"/>
      <stop offset="35%" stop-color="#ffb347"/>
      <stop offset="100%" stop-color="#ff4d2a" stop-opacity="0"/>
    </linearGradient>
    <linearGradient id="hull" x1="0" y1="0" x2="1" y2="0.3">
      <stop offset="0%" stop-color="#e8eef8"/>
      <stop offset="100%" stop-color="#7a8aa8"/>
    </linearGradient>
  </defs>
  <rect width="64" height="64" rx="14" fill="#070b14"/>
  <circle cx="10" cy="14" r="0.9" fill="#c8d8ff" opacity="0.55"/>
  <circle cx="54" cy="22" r="0.7" fill="#a8c4ff" opacity="0.45"/>
  <circle cx="48" cy="8" r="0.5" fill="#fff" opacity="0.35"/>
  <circle cx="32" cy="36" r="17" fill="url(#planet)"/>
  <ellipse cx="26" cy="28" rx="7" ry="4" fill="#ffffff" opacity="0.12" transform="rotate(-22 26 28)"/>
  <circle cx="32" cy="36" r="17.5" stroke="#5ecfd0" stroke-width="1.25" opacity="0.28"/>
  <path d="M12 30 Q32 9 52 30" stroke="#5ecfd0" stroke-width="2" stroke-linecap="round" opacity="0.42"/>
  <g transform="translate(46 14) rotate(32)">
    <path d="M -14 0 L 4 -5.2 4 5.2 -14 0 Z" fill="url(#flame)" opacity="0.95"/>
    <path d="M -12 0 L 22 0 14 4.5 6 3.2 6 -3.2 14 -4.5 Z" fill="url(#hull)" stroke="#4a5668" stroke-width="0.9"/>
    <path d="M 6 3.2 L 2 6 -2 6 -6 3.2 Z" fill="#3a4558" opacity="0.9"/>
    <path d="M -4 -1.2 L 8 -1.2 8 1.2 -4 1.2 Z" fill="#5ecfd0" opacity="0.55"/>
  </g>
</svg>
